<?xml version='1.0' encoding='iso-8859-1'?>
<svg version="1.1" xmlns="http://www.w3.org/2000/svg" viewBox="0 0 368.373 368.373" xmlns:xlink="http://www.w3.org/1999/xlink" enable-background="new 0 0 368.373 368.373">
  <g>
    <path d="m347.913,164.178c-8.633,0-16.018,5.382-19.017,12.961h-26.626c-1.595-27-12.282-51.591-29.041-70.749l18.894-18.894c2.541,1.105 5.301,1.699 8.155,1.699 5.465,0 10.603-2.128 14.468-5.993 7.978-7.978 7.978-20.958 0-28.936-3.864-3.865-9.002-5.993-14.468-5.993s-10.604,2.128-14.468,5.993c-6.104,6.104-7.52,15.132-4.282,22.612l-18.868,18.868c-19.041-16.914-43.558-27.786-70.521-29.584v-26.684c7.578-3 12.96-10.385 12.96-19.017 0-11.282-9.179-20.46-20.46-20.46s-20.46,9.179-20.46,20.46c0,8.633 5.382,16.017 12.96,19.017v26.626c-27,1.595-51.591,12.282-70.748,29.041l-18.906-18.905c3.238-7.48 1.821-16.508-4.283-22.612-3.864-3.865-9.002-5.993-14.468-5.993s-10.604,2.128-14.468,5.993c-7.977,7.978-7.977,20.958 0,28.936 3.864,3.865 9.002,5.993 14.468,5.993 2.855,0 5.614-0.594 8.155-1.699l18.856,18.856c-16.914,19.041-27.786,43.558-29.584,70.521h-26.683c-3-7.578-10.385-12.96-19.017-12.96-11.282,0-20.46,9.179-20.46,20.46 0,11.282 9.179,20.461 20.46,20.461 8.633,0 16.018-5.382 19.017-12.961h26.626c1.595,27 12.282,51.591 29.041,70.749l-18.895,18.893c-2.541-1.105-5.301-1.699-8.155-1.699-5.465,0-10.603,2.128-14.468,5.993-7.977,7.978-7.977,20.958 0,28.936 3.864,3.865 9.002,5.993 14.468,5.993s10.604-2.128 14.468-5.993c6.104-6.104 7.52-15.132 4.283-22.612l18.867-18.867c19.041,16.914 43.558,27.785 70.522,29.584v26.684c-7.579,3-12.961,10.385-12.961,19.017 0,11.282 9.179,20.46 20.461,20.46 11.282,0 20.46-9.179 20.46-20.46 0-8.633-5.382-16.017-12.96-19.017v-26.626c26.999-1.595 51.591-12.282 70.748-29.041l18.905,18.905c-3.237,7.48-1.821,16.508 4.283,22.612 3.864,3.865 9.002,5.993 14.468,5.993s10.604-2.128 14.468-5.993c7.978-7.978 7.978-20.958 0-28.936-3.864-3.865-9.002-5.993-14.468-5.993-2.516,0-4.956,0.471-7.241,1.335l-7.693-7.693-.639,.639-11.438-11.438c16.914-19.041 27.785-43.557 29.584-70.521h26.684c3,7.578 10.385,12.96 19.017,12.96 11.282,0 20.46-9.179 20.46-20.46-1.13687e-13-11.283-9.179-20.461-20.46-20.461zm-51.496-99.305c1.031-1.031 2.403-1.6 3.861-1.599 1.458,0 2.83,0.568 3.861,1.599 2.129,2.129 2.129,5.593 0,7.722-1.031,1.032-2.403,1.6-3.861,1.6s-2.83-0.568-3.861-1.599c-2.129-2.129-2.129-5.594 0-7.723zm-111.778-49.873c3.011,0 5.46,2.45 5.46,5.46s-2.45,5.46-5.46,5.46-5.46-2.45-5.46-5.46 2.449-5.46 5.46-5.46zm-119.765,56.957c-2.129-2.129-2.129-5.594 0-7.723 1.032-1.031 2.403-1.6 3.861-1.599 1.458,0 2.83,0.568 3.861,1.599 2.129,2.129 2.129,5.593 0,7.723-1.032,1.031-2.403,1.6-3.861,1.6s-2.83-0.569-3.861-1.6zm-44.414,117.238c-3.011,0-5.46-2.45-5.46-5.461 0-3.011 2.45-5.46 5.46-5.46s5.46,2.45 5.46,5.46c0.001,3.012-2.449,5.461-5.46,5.461zm51.497,114.305c-1.031,1.031-2.403,1.6-3.861,1.6s-2.83-0.568-3.861-1.6c-2.129-2.129-2.129-5.594 0-7.722 1.031-1.032 2.403-1.6 3.861-1.6s2.83,0.568 3.861,1.599c2.128,2.13 2.128,5.594 0,7.723zm111.778,49.873c-3.011,0-5.461-2.45-5.461-5.46s2.45-5.46 5.461-5.46c3.011,0 5.46,2.45 5.46,5.46s-2.449,5.46-5.46,5.46zm119.765-49.234c-1.032,1.031-2.403,1.6-3.861,1.6s-2.83-0.568-3.861-1.6c-1.33-1.329-1.829-3.18-1.498-4.901l4.32-4.32c0.339-0.065 0.686-0.101 1.039-0.101 1.458,0 2.83,0.568 3.861,1.599 2.129,2.13 2.129,5.594 0,7.723zm-41.492-52.099l-36.289-36.29c-2.929-2.93-7.678-2.929-10.606,0-2.929,2.929-2.929,7.678 0,10.606l36.243,36.243c-16.402,14.07-37.251,23.091-60.12,24.64v-51.366c0-4.142-3.358-7.5-7.5-7.5s-7.5,3.358-7.5,7.5v51.309c-22.833-1.746-43.611-10.952-59.902-25.174l36.29-36.289c2.929-2.929 2.929-7.678 0-10.606-2.929-2.929-7.678-2.929-10.606,0l-36.243,36.243c-14.07-16.402-23.091-37.252-24.64-60.12h51.365c4.142,0 7.5-3.358 7.5-7.5s-3.358-7.5-7.5-7.5h-51.309c1.747-22.833 10.952-43.611 25.174-59.902l36.29,36.29c1.464,1.464 3.384,2.197 5.303,2.197s3.839-0.732 5.303-2.197c2.929-2.929 2.929-7.678 0-10.606l-36.243-36.243c16.402-14.07 37.252-23.091 60.12-24.64v51.365h15v-51.309c22.833,1.746 43.611,10.952 59.902,25.174l-36.289,36.289c-2.929,2.929-2.929,7.678 0,10.606 1.464,1.464 3.384,2.197 5.303,2.197s3.839-0.732 5.303-2.197l36.242-36.242c14.07,16.402 23.091,37.252 24.64,60.12h-51.367c-4.142,0-7.5,3.358-7.5,7.5s3.358,7.5 7.5,7.5h51.309c-1.746,22.834-10.951,43.612-25.173,59.902zm85.905-61.941c-3.011,0-5.46-2.45-5.46-5.46 0-3.011 2.45-5.461 5.46-5.461s5.46,2.45 5.46,5.461c0,3.01-2.45,5.46-5.46,5.46z"/>
    <path d="m242.89,305.13c-1.585-3.827-5.974-5.644-9.799-4.059-3.827,1.585-5.644,5.973-4.059,9.799l9.567,23.097c1.196,2.888 3.989,4.632 6.932,4.632 0.957,0 1.929-0.184 2.867-0.573 3.827-1.585 5.644-5.973 4.059-9.799l-9.567-23.097z"/>
    <path d="m334.313,237.764l-23.097-9.567c-3.829-1.585-8.214,0.232-9.799,4.059-1.585,3.827 0.232,8.214 4.059,9.799l23.097,9.567c0.939,0.389 1.911,0.573 2.867,0.573 2.943,0 5.736-1.744 6.932-4.632 1.585-3.827-0.232-8.214-4.059-9.799z"/>
    <path d="m301.071,135.282c1.196,2.888 3.989,4.632 6.932,4.632 0.957,0 1.929-0.184 2.867-0.573l23.097-9.567c3.827-1.585 5.644-5.972 4.059-9.799-1.585-3.827-5.973-5.644-9.799-4.059l-23.097,9.567c-3.827,1.585-5.644,5.972-4.059,9.799z"/>
    <path d="m232.256,66.957c0.939,0.389 1.911,0.573 2.867,0.573 2.943,0 5.736-1.744 6.932-4.632l9.567-23.097c1.585-3.827-0.232-8.214-4.059-9.799-3.829-1.585-8.215,0.232-9.799,4.059l-9.567,23.097c-1.585,3.826 0.232,8.214 4.059,9.799z"/>
    <path d="m125.483,63.243c1.196,2.888 3.989,4.632 6.932,4.632 0.957,0 1.929-0.184 2.867-0.573 3.827-1.585 5.644-5.973 4.059-9.799l-9.567-23.097c-1.584-3.827-5.973-5.644-9.799-4.059-3.827,1.585-5.644,5.973-4.059,9.799l9.567,23.097z"/>
    <path d="m34.06,130.609l23.097,9.567c0.939,0.389 1.911,0.573 2.867,0.573 2.943,0 5.736-1.744 6.932-4.632 1.585-3.827-0.232-8.214-4.059-9.799l-23.097-9.567c-3.828-1.584-8.214,0.232-9.799,4.059s0.232,8.214 4.059,9.799z"/>
    <path d="m67.302,233.091c-1.585-3.827-5.973-5.643-9.799-4.059l-23.097,9.567c-3.827,1.585-5.644,5.973-4.059,9.799 1.196,2.888 3.989,4.632 6.932,4.632 0.957,0 1.929-0.184 2.867-0.573l23.097-9.567c3.827-1.585 5.644-5.973 4.059-9.799z"/>
    <path d="m136.117,301.417c-3.828-1.584-8.214,0.232-9.799,4.059l-9.567,23.097c-1.585,3.827 0.232,8.214 4.059,9.799 0.939,0.389 1.911,0.573 2.867,0.573 2.943,0 5.736-1.744 6.932-4.632l9.567-23.097c1.585-3.827-0.232-8.215-4.059-9.799z"/>
  </g>
</svg>
