<?xml version="1.0" encoding="UTF-8" standalone="no"?><!DOCTYPE svg PUBLIC "-//W3C//DTD SVG 1.1//EN" "http://www.w3.org/Graphics/SVG/1.1/DTD/svg11.dtd"><svg width="1535px" height="1535px" version="1.1" xmlns="http://www.w3.org/2000/svg" xmlns:xlink="http://www.w3.org/1999/xlink" xml:space="preserve" xmlns:serif="http://www.serif.com/" style="fill-rule:evenodd;clip-rule:evenodd;stroke-linejoin:round;stroke-miterlimit:2;"><g transform="matrix(4.16667,0,0,4.16667,0,0)"><g><path d="M347.913,164.178C339.28,164.178 331.895,169.56 328.896,177.139L302.27,177.139C300.675,150.139 289.988,125.548 273.229,106.39L292.123,87.496C294.664,88.601 297.424,89.195 300.278,89.195C305.743,89.195 310.881,87.067 314.746,83.202C322.724,75.224 322.724,62.244 314.746,54.266C310.882,50.401 305.744,48.273 300.278,48.273C294.812,48.273 289.674,50.401 285.81,54.266C279.706,60.37 278.29,69.398 281.528,76.878L262.66,95.746C243.619,78.832 219.102,67.96 192.139,66.162L192.139,39.478C199.717,36.478 205.099,29.093 205.099,20.461C205.099,9.179 195.92,0.001 184.639,0.001C173.358,0.001 164.179,9.18 164.179,20.461C164.179,29.094 169.561,36.478 177.139,39.478L177.139,66.104C150.139,67.699 125.548,78.386 106.391,95.145L87.485,76.24C90.723,68.76 89.306,59.732 83.202,53.628C79.338,49.763 74.2,47.635 68.734,47.635C63.268,47.635 58.13,49.763 54.266,53.628C46.289,61.606 46.289,74.586 54.266,82.564C58.13,86.429 63.268,88.557 68.734,88.557C71.589,88.557 74.348,87.963 76.889,86.858L95.745,105.714C78.831,124.755 67.959,149.272 66.161,176.235L39.478,176.235C36.478,168.657 29.093,163.275 20.461,163.275C9.179,163.275 0.001,172.454 0.001,183.735C0.001,195.017 9.18,204.196 20.461,204.196C29.094,204.196 36.479,198.814 39.478,191.235L66.104,191.235C67.699,218.235 78.386,242.826 95.145,261.984L76.25,280.877C73.709,279.772 70.949,279.178 68.095,279.178C62.63,279.178 57.492,281.306 53.627,285.171C45.65,293.149 45.65,306.129 53.627,314.107C57.491,317.972 62.629,320.1 68.095,320.1C73.561,320.1 78.699,317.972 82.563,314.107C88.667,308.003 90.083,298.975 86.846,291.495L105.713,272.628C124.754,289.542 149.271,300.413 176.235,302.212L176.235,328.896C168.656,331.896 163.274,339.281 163.274,347.913C163.274,359.195 172.453,368.373 183.735,368.373C195.017,368.373 204.195,359.194 204.195,347.913C204.195,339.28 198.813,331.896 191.235,328.896L191.235,302.27C218.234,300.675 242.826,289.988 261.983,273.229L280.888,292.134C277.651,299.614 279.067,308.642 285.171,314.746C289.035,318.611 294.173,320.739 299.639,320.739C305.105,320.739 310.243,318.611 314.107,314.746C322.085,306.768 322.085,293.788 314.107,285.81C310.243,281.945 305.105,279.817 299.639,279.817C297.123,279.817 294.683,280.288 292.398,281.152L284.705,273.459L284.066,274.098L272.628,262.66C289.542,243.619 300.413,219.103 302.212,192.139L328.896,192.139C331.896,199.717 339.281,205.099 347.913,205.099C359.195,205.099 368.373,195.92 368.373,184.639C368.373,173.356 359.194,164.178 347.913,164.178ZM296.417,64.873C297.448,63.842 298.82,63.273 300.278,63.274C301.736,63.274 303.108,63.842 304.139,64.873C306.268,67.002 306.268,70.466 304.139,72.595C303.108,73.627 301.736,74.195 300.278,74.195C298.82,74.195 297.448,73.627 296.417,72.596C294.288,70.467 294.288,67.002 296.417,64.873ZM184.639,15C187.65,15 190.099,17.45 190.099,20.46C190.099,23.47 187.649,25.92 184.639,25.92C181.629,25.92 179.179,23.47 179.179,20.46C179.179,17.45 181.628,15 184.639,15ZM64.874,71.957C62.745,69.828 62.745,66.363 64.874,64.234C65.906,63.203 67.277,62.634 68.735,62.635C70.193,62.635 71.565,63.203 72.596,64.234C74.725,66.363 74.725,69.827 72.596,71.957C71.564,72.988 70.193,73.557 68.735,73.557C67.277,73.557 65.905,72.988 64.874,71.957ZM20.46,189.195C17.449,189.195 15,186.745 15,183.734C15,180.723 17.45,178.274 20.46,178.274C23.47,178.274 25.92,180.724 25.92,183.734C25.921,186.746 23.471,189.195 20.46,189.195ZM71.957,303.5C70.926,304.531 69.554,305.1 68.096,305.1C66.638,305.1 65.266,304.532 64.235,303.5C62.106,301.371 62.106,297.906 64.235,295.778C65.266,294.746 66.638,294.178 68.096,294.178C69.554,294.178 70.926,294.746 71.957,295.777C74.085,297.907 74.085,301.371 71.957,303.5ZM183.735,353.373C180.724,353.373 178.274,350.923 178.274,347.913C178.274,344.903 180.724,342.453 183.735,342.453C186.746,342.453 189.195,344.903 189.195,347.913C189.195,350.923 186.746,353.373 183.735,353.373ZM303.5,304.139C302.468,305.17 301.097,305.739 299.639,305.739C298.181,305.739 296.809,305.171 295.778,304.139C294.448,302.81 293.949,300.959 294.28,299.238L298.6,294.918C298.939,294.853 299.286,294.817 299.639,294.817C301.097,294.817 302.469,295.385 303.5,296.416C305.629,298.546 305.629,302.01 303.5,304.139ZM262.008,252.04L225.719,215.75C222.79,212.82 218.041,212.821 215.113,215.75C212.184,218.679 212.184,223.428 215.113,226.356L251.356,262.599C234.954,276.669 214.105,285.69 191.236,287.239L191.236,235.873C191.236,231.731 187.878,228.373 183.736,228.373C179.594,228.373 176.236,231.731 176.236,235.873L176.236,287.182C153.403,285.436 132.625,276.23 116.334,262.008L152.624,225.719C155.553,222.79 155.553,218.041 152.624,215.113C149.695,212.184 144.946,212.184 142.018,215.113L105.775,251.356C91.705,234.954 82.684,214.104 81.135,191.236L132.5,191.236C136.642,191.236 140,187.878 140,183.736C140,179.594 136.642,176.236 132.5,176.236L81.191,176.236C82.938,153.403 92.143,132.625 106.365,116.334L142.655,152.624C144.119,154.088 146.039,154.821 147.958,154.821C149.877,154.821 151.797,154.089 153.261,152.624C156.19,149.695 156.19,144.946 153.261,142.018L117.018,105.775C133.42,91.705 154.27,82.684 177.138,81.135L177.138,132.5L192.138,132.5L192.138,81.191C214.971,82.937 235.749,92.143 252.04,106.365L215.751,142.654C212.822,145.583 212.822,150.332 215.751,153.26C217.215,154.724 219.135,155.457 221.054,155.457C222.973,155.457 224.893,154.725 226.357,153.26L262.599,117.018C276.669,133.42 285.69,154.27 287.239,177.138L235.872,177.138C231.73,177.138 228.372,180.496 228.372,184.638C228.372,188.78 231.73,192.138 235.872,192.138L287.181,192.138C285.435,214.972 276.23,235.75 262.008,252.04ZM347.913,190.099C344.902,190.099 342.453,187.649 342.453,184.639C342.453,181.628 344.903,179.178 347.913,179.178C350.923,179.178 353.373,181.628 353.373,184.639C353.373,187.649 350.923,190.099 347.913,190.099Z" style="fill:white;fill-rule:nonzero;"/><path d="M242.89,305.13C241.305,301.303 236.916,299.486 233.091,301.071C229.264,302.656 227.447,307.044 229.032,310.87L238.599,333.967C239.795,336.855 242.588,338.599 245.531,338.599C246.488,338.599 247.46,338.415 248.398,338.026C252.225,336.441 254.042,332.053 252.457,328.227L242.89,305.13Z" style="fill:white;fill-rule:nonzero;"/><path d="M334.313,237.764L311.216,228.197C307.387,226.612 303.002,228.429 301.417,232.256C299.832,236.083 301.649,240.47 305.476,242.055L328.573,251.622C329.512,252.011 330.484,252.195 331.44,252.195C334.383,252.195 337.176,250.451 338.372,247.563C339.957,243.736 338.14,239.349 334.313,237.764Z" style="fill:white;fill-rule:nonzero;"/><path d="M301.071,135.282C302.267,138.17 305.06,139.914 308.003,139.914C308.96,139.914 309.932,139.73 310.87,139.341L333.967,129.774C337.794,128.189 339.611,123.802 338.026,119.975C336.441,116.148 332.053,114.331 328.227,115.916L305.13,125.483C301.303,127.068 299.486,131.455 301.071,135.282Z" style="fill:white;fill-rule:nonzero;"/><path d="M232.256,66.957C233.195,67.346 234.167,67.53 235.123,67.53C238.066,67.53 240.859,65.786 242.055,62.898L251.622,39.801C253.207,35.974 251.39,31.587 247.563,30.002C243.734,28.417 239.348,30.234 237.764,34.061L228.197,57.158C226.612,60.984 228.429,65.372 232.256,66.957Z" style="fill:white;fill-rule:nonzero;"/><path d="M125.483,63.243C126.679,66.131 129.472,67.875 132.415,67.875C133.372,67.875 134.344,67.691 135.282,67.302C139.109,65.717 140.926,61.329 139.341,57.503L129.774,34.406C128.19,30.579 123.801,28.762 119.975,30.347C116.148,31.932 114.331,36.32 115.916,40.146L125.483,63.243Z" style="fill:white;fill-rule:nonzero;"/><path d="M34.06,130.609L57.157,140.176C58.096,140.565 59.068,140.749 60.024,140.749C62.967,140.749 65.76,139.005 66.956,136.117C68.541,132.29 66.724,127.903 62.897,126.318L39.8,116.751C35.972,115.167 31.586,116.983 30.001,120.81C28.416,124.637 30.233,129.024 34.06,130.609Z" style="fill:white;fill-rule:nonzero;"/><path d="M67.302,233.091C65.717,229.264 61.329,227.448 57.503,229.032L34.406,238.599C30.579,240.184 28.762,244.572 30.347,248.398C31.543,251.286 34.336,253.03 37.279,253.03C38.236,253.03 39.208,252.846 40.146,252.457L63.243,242.89C67.07,241.305 68.887,236.917 67.302,233.091Z" style="fill:white;fill-rule:nonzero;"/><path d="M136.117,301.417C132.289,299.833 127.903,301.649 126.318,305.476L116.751,328.573C115.166,332.4 116.983,336.787 120.81,338.372C121.749,338.761 122.721,338.945 123.677,338.945C126.62,338.945 129.413,337.201 130.609,334.313L140.176,311.216C141.761,307.389 139.944,303.001 136.117,301.417Z" style="fill:white;fill-rule:nonzero;"/></g></g></svg>