<?xml version="1.0" encoding="UTF-8" standalone="no"?>
<!DOCTYPE svg PUBLIC "-//W3C//DTD SVG 1.1//EN" "http://www.w3.org/Graphics/SVG/1.1/DTD/svg11.dtd">
<svg width="100%" height="100%" viewBox="0 0 369 369" version="1.1" xmlns="http://www.w3.org/2000/svg" xmlns:xlink="http://www.w3.org/1999/xlink" xml:space="preserve" xmlns:serif="http://www.serif.com/" style="fill-rule:evenodd;clip-rule:evenodd;stroke-linejoin:round;stroke-miterlimit:2;">
    <g transform="matrix(3.50596,0,0,3.50596,-79.9986,-332.904)">
        <g transform="matrix(12,0,0,12,31.1412,141.587)">
            <path d="M0.647,-0.713L0.647,-0.579C0.582,-0.634 0.514,-0.661 0.443,-0.661C0.366,-0.661 0.301,-0.633 0.248,-0.578C0.194,-0.522 0.167,-0.455 0.167,-0.375C0.167,-0.295 0.194,-0.229 0.248,-0.174C0.301,-0.12 0.366,-0.093 0.444,-0.093C0.484,-0.093 0.518,-0.099 0.546,-0.112C0.562,-0.119 0.578,-0.128 0.594,-0.139C0.611,-0.15 0.629,-0.163 0.647,-0.179L0.647,-0.042C0.582,-0.005 0.514,0.014 0.442,0.014C0.335,0.014 0.243,-0.024 0.167,-0.099C0.091,-0.175 0.053,-0.266 0.053,-0.374C0.053,-0.47 0.084,-0.555 0.148,-0.63C0.226,-0.722 0.327,-0.769 0.451,-0.769C0.519,-0.769 0.584,-0.75 0.647,-0.713Z" style="fill:white;fill-rule:nonzero;"/>
        </g>
        <g transform="matrix(12,0,0,12,39.4908,141.587)">
            <path d="M0.053,-0.38C0.053,-0.486 0.092,-0.578 0.169,-0.654C0.247,-0.73 0.34,-0.768 0.449,-0.768C0.556,-0.768 0.648,-0.73 0.725,-0.653C0.802,-0.576 0.841,-0.484 0.841,-0.376C0.841,-0.268 0.802,-0.176 0.725,-0.1C0.647,-0.024 0.553,0.014 0.443,0.014C0.346,0.014 0.258,-0.02 0.181,-0.087C0.095,-0.162 0.053,-0.26 0.053,-0.38ZM0.167,-0.379C0.167,-0.296 0.195,-0.227 0.251,-0.173C0.307,-0.12 0.371,-0.093 0.444,-0.093C0.523,-0.093 0.59,-0.12 0.645,-0.175C0.699,-0.23 0.726,-0.298 0.726,-0.377C0.726,-0.457 0.699,-0.525 0.646,-0.579C0.592,-0.634 0.526,-0.661 0.447,-0.661C0.369,-0.661 0.303,-0.634 0.249,-0.579C0.194,-0.525 0.167,-0.458 0.167,-0.379Z" style="fill:white;fill-rule:nonzero;"/>
        </g>
        <g transform="matrix(12,0,0,12,50.2134,141.587)">
            <path d="M0.346,-0.321L0.579,0L0.44,0L0.225,-0.309L0.204,-0.309L0.204,0L0.09,0L0.09,-0.754L0.224,-0.754C0.323,-0.754 0.395,-0.735 0.439,-0.698C0.488,-0.656 0.513,-0.601 0.513,-0.533C0.513,-0.479 0.497,-0.433 0.467,-0.395C0.436,-0.357 0.396,-0.332 0.346,-0.321ZM0.204,-0.408L0.24,-0.408C0.348,-0.408 0.402,-0.449 0.402,-0.531C0.402,-0.608 0.349,-0.647 0.245,-0.647L0.204,-0.647L0.204,-0.408Z" style="fill:white;fill-rule:nonzero;"/>
        </g>
        <g transform="matrix(12,0,0,12,57.233,141.587)">
            <path d="M0.053,-0.38C0.053,-0.486 0.092,-0.578 0.169,-0.654C0.247,-0.73 0.34,-0.768 0.449,-0.768C0.556,-0.768 0.648,-0.73 0.725,-0.653C0.802,-0.576 0.841,-0.484 0.841,-0.376C0.841,-0.268 0.802,-0.176 0.725,-0.1C0.647,-0.024 0.553,0.014 0.443,0.014C0.346,0.014 0.258,-0.02 0.181,-0.087C0.095,-0.162 0.053,-0.26 0.053,-0.38ZM0.167,-0.379C0.167,-0.296 0.195,-0.227 0.251,-0.173C0.307,-0.12 0.371,-0.093 0.444,-0.093C0.523,-0.093 0.59,-0.12 0.645,-0.175C0.699,-0.23 0.726,-0.298 0.726,-0.377C0.726,-0.457 0.699,-0.525 0.646,-0.579C0.592,-0.634 0.526,-0.661 0.447,-0.661C0.369,-0.661 0.303,-0.634 0.249,-0.579C0.194,-0.525 0.167,-0.458 0.167,-0.379Z" style="fill:white;fill-rule:nonzero;"/>
        </g>
        <g transform="matrix(12,0,0,12,67.9556,141.587)">
            <path d="M0.09,0L0.09,-0.805L0.64,-0.23L0.64,-0.754L0.754,-0.754L0.754,0.046L0.204,-0.528L0.204,0L0.09,0Z" style="fill:white;fill-rule:nonzero;"/>
        </g>
        <g transform="matrix(12,0,0,12,78.1568,141.587)">
            <path d="M0.533,-0.183L0.21,-0.183L0.126,0L0.004,0L0.377,-0.801L0.737,0L0.612,0L0.533,-0.183ZM0.487,-0.29L0.375,-0.546L0.258,-0.29L0.487,-0.29Z" style="fill:white;fill-rule:nonzero;"/>
        </g>
        <g transform="matrix(12,0,0,12,86.3365,141.587)">
            <path d="M0.128,-0.754L0.337,-0.231L0.548,-0.754L0.673,-0.754L0.334,0.057L0.004,-0.754L0.128,-0.754Z" style="fill:white;fill-rule:nonzero;"/>
        </g>
        <g transform="matrix(12,0,0,12,94.4517,141.587)">
            <rect x="0.09" y="-0.754" width="0.114" height="0.754" style="fill:white;fill-rule:nonzero;"/>
        </g>
        <g transform="matrix(12,0,0,12,97.9908,141.587)">
            <path d="M0.346,-0.321L0.579,0L0.44,0L0.225,-0.309L0.204,-0.309L0.204,0L0.09,0L0.09,-0.754L0.224,-0.754C0.323,-0.754 0.395,-0.735 0.439,-0.698C0.488,-0.656 0.513,-0.601 0.513,-0.533C0.513,-0.479 0.497,-0.433 0.467,-0.395C0.436,-0.357 0.396,-0.332 0.346,-0.321ZM0.204,-0.408L0.24,-0.408C0.348,-0.408 0.402,-0.449 0.402,-0.531C0.402,-0.608 0.349,-0.647 0.245,-0.647L0.204,-0.647L0.204,-0.408Z" style="fill:white;fill-rule:nonzero;"/>
        </g>
        <g transform="matrix(12,0,0,12,105.081,141.587)">
            <path d="M0.204,-0.754L0.204,-0.3C0.204,-0.235 0.215,-0.188 0.236,-0.158C0.267,-0.114 0.312,-0.093 0.369,-0.093C0.427,-0.093 0.471,-0.114 0.503,-0.158C0.524,-0.187 0.535,-0.234 0.535,-0.3L0.535,-0.754L0.648,-0.754L0.648,-0.269C0.648,-0.189 0.624,-0.124 0.574,-0.072C0.519,-0.015 0.45,0.014 0.369,0.014C0.288,0.014 0.22,-0.015 0.165,-0.072C0.115,-0.124 0.09,-0.189 0.09,-0.269L0.09,-0.754L0.204,-0.754Z" style="fill:white;fill-rule:nonzero;"/>
        </g>
        <g transform="matrix(12,0,0,12,113.946,141.587)">
            <path d="M0.517,-0.642L0.424,-0.587C0.407,-0.617 0.391,-0.636 0.375,-0.646C0.359,-0.656 0.338,-0.661 0.312,-0.661C0.28,-0.661 0.254,-0.652 0.233,-0.634C0.213,-0.617 0.202,-0.595 0.202,-0.568C0.202,-0.531 0.229,-0.501 0.284,-0.479L0.359,-0.448C0.421,-0.424 0.465,-0.393 0.494,-0.358C0.522,-0.322 0.536,-0.278 0.536,-0.227C0.536,-0.157 0.513,-0.1 0.467,-0.055C0.42,-0.009 0.362,0.014 0.293,0.014C0.228,0.014 0.174,-0.006 0.131,-0.044C0.089,-0.083 0.063,-0.138 0.053,-0.208L0.168,-0.233C0.173,-0.189 0.182,-0.159 0.195,-0.142C0.219,-0.109 0.253,-0.093 0.298,-0.093C0.333,-0.093 0.363,-0.105 0.386,-0.128C0.41,-0.152 0.421,-0.182 0.421,-0.219C0.421,-0.233 0.419,-0.247 0.415,-0.259C0.411,-0.271 0.405,-0.282 0.396,-0.293C0.388,-0.303 0.376,-0.313 0.363,-0.322C0.349,-0.33 0.333,-0.339 0.314,-0.347L0.241,-0.377C0.138,-0.421 0.086,-0.485 0.086,-0.569C0.086,-0.625 0.108,-0.673 0.151,-0.711C0.195,-0.749 0.249,-0.769 0.313,-0.769C0.4,-0.769 0.468,-0.726 0.517,-0.642Z" style="fill:white;fill-rule:nonzero;"/>
        </g>
    </g>
    <g transform="matrix(3.50596,0,0,3.50596,-38.1941,-282.904)">
        <g transform="matrix(12,0,0,12,31.1412,141.587)">
            <path d="M0.09,0L0.09,-0.805L0.64,-0.23L0.64,-0.754L0.754,-0.754L0.754,0.046L0.204,-0.528L0.204,0L0.09,0Z" style="fill:white;fill-rule:nonzero;"/>
        </g>
        <g transform="matrix(12,0,0,12,41.3541,141.587)">
            <path d="M0.053,-0.38C0.053,-0.486 0.092,-0.578 0.169,-0.654C0.247,-0.73 0.34,-0.768 0.449,-0.768C0.556,-0.768 0.648,-0.73 0.725,-0.653C0.802,-0.576 0.841,-0.484 0.841,-0.376C0.841,-0.268 0.802,-0.176 0.725,-0.1C0.647,-0.024 0.553,0.014 0.443,0.014C0.346,0.014 0.258,-0.02 0.181,-0.087C0.095,-0.162 0.053,-0.26 0.053,-0.38ZM0.167,-0.379C0.167,-0.296 0.195,-0.227 0.251,-0.173C0.307,-0.12 0.371,-0.093 0.444,-0.093C0.523,-0.093 0.59,-0.12 0.645,-0.175C0.699,-0.23 0.726,-0.298 0.726,-0.377C0.726,-0.457 0.699,-0.525 0.646,-0.579C0.592,-0.634 0.526,-0.661 0.447,-0.661C0.369,-0.661 0.303,-0.634 0.249,-0.579C0.194,-0.525 0.167,-0.458 0.167,-0.379Z" style="fill:white;fill-rule:nonzero;"/>
        </g>
        <g transform="matrix(12,0,0,12,55.7798,141.587)">
            <path d="M0.09,0L0.09,-0.754L0.204,-0.754C0.254,-0.754 0.294,-0.75 0.324,-0.742C0.354,-0.734 0.38,-0.721 0.401,-0.703C0.422,-0.683 0.439,-0.66 0.451,-0.631C0.464,-0.602 0.47,-0.573 0.47,-0.543C0.47,-0.489 0.45,-0.443 0.408,-0.406C0.448,-0.392 0.48,-0.368 0.503,-0.334C0.526,-0.3 0.538,-0.261 0.538,-0.216C0.538,-0.157 0.517,-0.107 0.476,-0.066C0.451,-0.041 0.422,-0.024 0.391,-0.014C0.357,-0.005 0.314,0 0.263,0L0.09,0ZM0.204,-0.43L0.24,-0.43C0.282,-0.43 0.313,-0.44 0.333,-0.458C0.352,-0.477 0.362,-0.505 0.362,-0.541C0.362,-0.576 0.352,-0.603 0.332,-0.622C0.312,-0.64 0.283,-0.649 0.244,-0.649L0.204,-0.649L0.204,-0.43ZM0.204,-0.107L0.274,-0.107C0.326,-0.107 0.364,-0.117 0.388,-0.137C0.413,-0.159 0.426,-0.187 0.426,-0.22C0.426,-0.253 0.414,-0.28 0.389,-0.302C0.365,-0.324 0.323,-0.335 0.262,-0.335L0.204,-0.335L0.204,-0.107Z" style="fill:white;fill-rule:nonzero;"/>
        </g>
        <g transform="matrix(12,0,0,12,62.8755,141.587)">
            <path d="M0.346,-0.321L0.579,0L0.44,0L0.225,-0.309L0.204,-0.309L0.204,0L0.09,0L0.09,-0.754L0.224,-0.754C0.323,-0.754 0.395,-0.735 0.439,-0.698C0.488,-0.656 0.513,-0.601 0.513,-0.533C0.513,-0.479 0.497,-0.433 0.467,-0.395C0.436,-0.357 0.396,-0.332 0.346,-0.321ZM0.204,-0.408L0.24,-0.408C0.348,-0.408 0.402,-0.449 0.402,-0.531C0.402,-0.608 0.349,-0.647 0.245,-0.647L0.204,-0.647L0.204,-0.408Z" style="fill:white;fill-rule:nonzero;"/>
        </g>
        <g transform="matrix(12,0,0,12,70.1002,141.587)">
            <path d="M0.533,-0.183L0.21,-0.183L0.126,0L0.004,0L0.377,-0.801L0.737,0L0.612,0L0.533,-0.183ZM0.487,-0.29L0.375,-0.546L0.258,-0.29L0.487,-0.29Z" style="fill:white;fill-rule:nonzero;"/>
        </g>
        <g transform="matrix(12,0,0,12,78.9888,141.587)">
            <path d="M0.517,-0.642L0.424,-0.587C0.407,-0.617 0.391,-0.636 0.375,-0.646C0.359,-0.656 0.338,-0.661 0.312,-0.661C0.28,-0.661 0.254,-0.652 0.233,-0.634C0.213,-0.617 0.202,-0.595 0.202,-0.568C0.202,-0.531 0.229,-0.501 0.284,-0.479L0.359,-0.448C0.421,-0.424 0.465,-0.393 0.494,-0.358C0.522,-0.322 0.536,-0.278 0.536,-0.227C0.536,-0.157 0.513,-0.1 0.467,-0.055C0.42,-0.009 0.362,0.014 0.293,0.014C0.228,0.014 0.174,-0.006 0.131,-0.044C0.089,-0.083 0.063,-0.138 0.053,-0.208L0.168,-0.233C0.173,-0.189 0.182,-0.159 0.195,-0.142C0.219,-0.109 0.253,-0.093 0.298,-0.093C0.333,-0.093 0.363,-0.105 0.386,-0.128C0.41,-0.152 0.421,-0.182 0.421,-0.219C0.421,-0.233 0.419,-0.247 0.415,-0.259C0.411,-0.271 0.405,-0.282 0.396,-0.293C0.388,-0.303 0.376,-0.313 0.363,-0.322C0.349,-0.33 0.333,-0.339 0.314,-0.347L0.241,-0.377C0.138,-0.421 0.086,-0.485 0.086,-0.569C0.086,-0.625 0.108,-0.673 0.151,-0.711C0.195,-0.749 0.249,-0.769 0.313,-0.769C0.4,-0.769 0.468,-0.726 0.517,-0.642Z" style="fill:white;fill-rule:nonzero;"/>
        </g>
        <g transform="matrix(12,0,0,12,85.9849,141.587)">
            <rect x="0.09" y="-0.754" width="0.114" height="0.754" style="fill:white;fill-rule:nonzero;"/>
        </g>
        <g transform="matrix(12,0,0,12,89.524,141.587)">
            <path d="M0.204,-0.754L0.204,-0.107L0.426,-0.107L0.426,0L0.09,0L0.09,-0.754L0.204,-0.754Z" style="fill:white;fill-rule:nonzero;"/>
        </g>
    </g>
</svg>
